<svg width="50" height="50" viewBox="0 0 50 50" fill="none" xmlns="http://www.w3.org/2000/svg">
<path d="M0.0712227 38.3323C1.59348 39.3576 4.94367 35.1203 6.00741 35.8374C7.07116 36.5545 3.50088 40.6419 4.39345 41.2418C5.28602 41.8416 9.0183 37.8633 10.0545 38.5587C11.0877 39.254 7.59997 43.3959 8.71874 44.1512C9.84056 44.9065 13.4934 40.8737 14.3798 41.4708C15.2663 42.068 12.017 46.3707 13.044 47.0606C14.0711 47.7532 17.5711 43.6167 18.4239 44.1921C19.2798 44.7674 15.844 48.9448 17.3663 49.97C18.8885 50.9925 33.7809 25.5276 33.7809 25.5276L21.933 17.5138C21.933 17.5138 -1.45103 37.3098 0.0712227 38.3323V38.3323ZM34.2425 0L23.9658 14.059L36.5626 22.5364L50 10.9587C48.3891 6.86045 39.4848 0.479904 34.2425 0V0Z" fill="white"/>
</svg>
