<svg width="27" height="28" viewBox="0 0 27 28" fill="none" xmlns="http://www.w3.org/2000/svg">
<path d="M0.0382554 21.3309C0.855894 21.8816 2.65536 19.6056 3.22672 19.9908C3.79808 20.376 1.88041 22.5714 2.35982 22.8936C2.83924 23.2158 4.84394 21.079 5.40052 21.4524C5.95546 21.8259 4.08212 24.0506 4.68303 24.4563C5.28559 24.862 7.2476 22.6959 7.72373 23.0166C8.19987 23.3374 6.45459 25.6485 7.00625 26.019C7.55791 26.391 9.43782 24.1693 9.89589 24.4783C10.3556 24.7873 8.51018 27.0311 9.32781 27.5817C10.1455 28.131 18.1445 14.4532 18.1445 14.4532L11.7807 10.1488C11.7807 10.1488 -0.779383 20.7817 0.0382554 21.3309ZM18.3924 0.741699L12.8726 8.29312L19.6386 12.8465L26.8562 6.62788C25.9909 4.4266 21.2082 0.999467 18.3924 0.741699Z" fill="white"/>
</svg>
