<svg width="67" height="67" viewBox="0 0 67 67" fill="none" xmlns="http://www.w3.org/2000/svg">
<g clip-path="url(#clip0_180_32)">
<path d="M1.40989 32.6418C1.40834 38.1934 2.87025 43.6141 5.65005 48.392L1.14404 64.7167L17.9808 60.3362C22.6376 62.8517 27.8553 64.1698 33.1574 64.1701H33.1714C50.6748 64.1701 64.923 50.0375 64.9305 32.6667C64.9339 24.2493 61.6332 16.3341 55.6364 10.3791C49.6406 4.42469 41.6664 1.14373 33.1701 1.13989C15.6646 1.13989 1.41738 15.2718 1.41015 32.6418" fill="url(#paint0_linear_180_32)"/>
<path d="M0.276173 32.6316C0.274366 38.383 1.78867 43.9976 4.66758 48.9465L0 65.8564L17.4405 61.319C22.2459 63.9187 27.6563 65.2894 33.1617 65.2914H33.1759C51.3073 65.2914 66.0673 50.6504 66.0751 32.6577C66.0782 23.9379 62.6588 15.7382 56.4477 9.56989C50.2359 3.40237 41.9765 0.00334133 33.1759 -0.000244141C15.0414 -0.000244141 0.283658 14.6387 0.276431 32.6316H0.276173ZM10.6623 48.0942L10.0111 47.0685C7.27368 42.7496 5.8288 37.7586 5.83087 32.6337C5.8368 17.6784 18.103 5.51113 33.1862 5.51113C40.4906 5.51421 47.3552 8.33956 52.5183 13.4658C57.6812 18.5925 60.5222 25.4074 60.5204 32.6557C60.5137 47.6109 48.2472 59.7798 33.1759 59.7798H33.165C28.2577 59.7772 23.4448 58.4695 19.2475 55.9984L18.2486 55.4106L7.89907 58.1031L10.6623 48.094V48.0942Z" fill="url(#paint1_linear_180_32)"/>
<path d="M24.9528 18.9901C24.3369 17.632 23.6888 17.6046 23.1032 17.5807C22.6236 17.5603 22.0754 17.5618 21.5277 17.5618C20.9795 17.5618 20.0888 17.7664 19.3359 18.5821C18.5822 19.3986 16.4585 21.3716 16.4585 25.3845C16.4585 29.3977 19.4043 33.2759 19.8149 33.8206C20.2261 34.3643 25.5017 42.8629 33.8571 46.1323C40.8012 48.8494 42.2144 48.309 43.7214 48.1727C45.2288 48.037 48.5852 46.2002 49.2699 44.2956C49.9552 42.3912 49.9552 40.7588 49.7498 40.4176C49.5443 40.0778 48.9961 39.8737 48.174 39.4659C47.3517 39.058 43.3103 37.0847 42.5569 36.8124C41.8032 36.5405 41.2552 36.4047 40.707 37.2214C40.1588 38.0369 38.5846 39.8737 38.1048 40.4176C37.6255 40.9629 37.1457 41.0307 36.3239 40.6228C35.5013 40.2135 32.8539 39.3533 29.713 36.5748C27.2693 34.4127 25.6194 31.7428 25.1399 30.9261C24.6603 30.1107 25.0885 29.6686 25.5007 29.2622C25.8701 28.8967 26.323 28.3098 26.7345 27.8337C27.1443 27.3573 27.2811 27.0174 27.5552 26.4735C27.8296 25.929 27.6923 25.4526 27.4871 25.0447C27.2811 24.6367 25.6837 20.603 24.9528 18.9903" fill="white"/>
</g>
<defs>
<linearGradient id="paint0_linear_180_32" x1="33.0373" y1="64.7167" x2="33.0373" y2="1.13989" gradientUnits="userSpaceOnUse">
<stop stop-color="#1FAF38"/>
<stop offset="1" stop-color="#60D669"/>
</linearGradient>
<linearGradient id="paint1_linear_180_32" x1="33.0375" y1="65.8564" x2="33.0375" y2="-0.000244141" gradientUnits="userSpaceOnUse">
<stop stop-color="#F9F9F9"/>
<stop offset="1" stop-color="white"/>
</linearGradient>
<clipPath id="clip0_180_32">
<rect width="66.0751" height="66.0751" fill="white"/>
</clipPath>
</defs>
</svg>
