<svg width="57" height="55" viewBox="0 0 57 55" fill="none" xmlns="http://www.w3.org/2000/svg">
<g clip-path="url(#clip0_180_15)">
<path d="M41.1738 31.2613L1.41216 38.0264C0.120412 38.2462 -0.742114 39.4347 -0.514343 40.6812L-0.101929 42.938C0.125841 44.1844 1.35766 45.0167 2.6494 44.7969L42.411 38.0319C43.7028 37.8121 44.5653 36.6235 44.3375 35.3771L43.9251 33.1202C43.6973 31.8738 42.4655 31.0416 41.1738 31.2613Z" stroke="white" stroke-width="4.55" stroke-linecap="round" stroke-linejoin="round"/>
<path d="M44.5463 42.3955L39.7963 37.8122M1.79631 1.14551L23.1713 21.7705L33.8588 32.083M1.79631 1.14551L23.6285 22.2117L18.5899 27.0723L3.47544 12.4893C0.117187 9.24655 0.117188 7.62634 0.117188 6.00613C0.117188 4.38592 1.79631 1.14551 1.79631 1.14551Z" stroke="white" stroke-width="4.55" stroke-linecap="round" stroke-linejoin="round"/>
</g>
<defs>
<clipPath id="clip0_180_15">
<rect width="57" height="55" fill="white"/>
</clipPath>
</defs>
</svg>
