<svg width="35" height="34" viewBox="0 0 35 34" fill="none" xmlns="http://www.w3.org/2000/svg">
<g clip-path="url(#clip0_180_43)">
<path d="M22.188 18.9703L-1.94146 23.0756C-2.72536 23.209 -3.24879 23.9303 -3.11056 24.6867L-2.86029 26.0563C-2.72207 26.8127 -1.97454 27.3177 -1.19064 27.1844L22.9388 23.079C23.7227 22.9456 24.2461 22.2243 24.1079 21.4679L23.8576 20.0983C23.7194 19.3419 22.9719 18.8369 22.188 18.9703Z" stroke="white" stroke-width="2.76118" stroke-linecap="round" stroke-linejoin="round"/>
<path d="M24.731 25.7278L21.8484 22.9464M-1.21197 0.695068L11.7595 13.2114L18.2453 19.4696M-1.21197 0.695068L12.037 13.4791L8.97929 16.4288L-0.192993 7.57906C-2.23096 5.61121 -2.23096 4.62798 -2.23096 3.64475C-2.23096 2.66153 -1.21197 0.695068 -1.21197 0.695068Z" stroke="white" stroke-width="2.76118" stroke-linecap="round" stroke-linejoin="round"/>
</g>
<defs>
<clipPath id="clip0_180_43">
<rect width="34.5906" height="33.3769" fill="white"/>
</clipPath>
</defs>
</svg>
