<svg width="84" height="76" viewBox="0 0 84 76" fill="none" xmlns="http://www.w3.org/2000/svg">
<path d="M42 0C53.1391 0 63.822 4.00356 71.6985 11.1299C79.575 18.2563 84 27.9218 84 38C84 48.0782 79.575 57.7437 71.6985 64.8701C63.822 71.9964 53.1391 76 42 76C30.8609 76 20.178 71.9964 12.3015 64.8701C4.42499 57.7437 0 48.0782 0 38C0 27.9218 4.42499 18.2563 12.3015 11.1299C20.178 4.00356 30.8609 0 42 0V0ZM23.625 35.625C22.9288 35.625 22.2611 35.8752 21.7688 36.3206C21.2766 36.766 21 37.3701 21 38C21 38.6299 21.2766 39.234 21.7688 39.6794C22.2611 40.1248 22.9288 40.375 23.625 40.375H54.0382L42.7665 50.5685C42.5224 50.7893 42.3288 51.0515 42.1968 51.34C42.0647 51.6285 41.9967 51.9377 41.9967 52.25C41.9967 52.5623 42.0647 52.8715 42.1968 53.16C42.3288 53.4485 42.5224 53.7107 42.7665 53.9315C43.0106 54.1523 43.3003 54.3275 43.6192 54.447C43.9381 54.5665 44.2798 54.628 44.625 54.628C44.9702 54.628 45.3119 54.5665 45.6308 54.447C45.9497 54.3275 46.2394 54.1523 46.4835 53.9315L62.2335 39.6815C62.478 39.4609 62.6719 39.1988 62.8042 38.9103C62.9366 38.6217 63.0047 38.3124 63.0047 38C63.0047 37.6876 62.9366 37.3783 62.8042 37.0897C62.6719 36.8012 62.478 36.5391 62.2335 36.3185L46.4835 22.0685C46.2394 21.8477 45.9497 21.6725 45.6308 21.553C45.3119 21.4335 44.9702 21.372 44.625 21.372C44.2798 21.372 43.9381 21.4335 43.6192 21.553C43.3003 21.6725 43.0106 21.8477 42.7665 22.0685C42.5224 22.2893 42.3288 22.5515 42.1968 22.84C42.0647 23.1285 41.9967 23.4377 41.9967 23.75C41.9967 24.0623 42.0647 24.3715 42.1968 24.66C42.3288 24.9485 42.5224 25.2107 42.7665 25.4315L54.0382 35.625H23.625Z" fill="#D1973E"/>
</svg>
