<svg width="84" height="76" viewBox="0 0 84 76" fill="none" xmlns="http://www.w3.org/2000/svg">
<path d="M42 0C30.8609 0 20.178 4.00356 12.3015 11.1299C4.42499 18.2563 0 27.9218 0 38C0 48.0782 4.42499 57.7437 12.3015 64.8701C20.178 71.9964 30.8609 76 42 76C53.1391 76 63.822 71.9964 71.6985 64.8701C79.575 57.7437 84 48.0782 84 38C84 27.9218 79.575 18.2563 71.6985 11.1299C63.822 4.00356 53.1391 0 42 0ZM60.375 35.625C61.0712 35.625 61.7389 35.8752 62.2312 36.3206C62.7234 36.766 63 37.3701 63 38C63 38.6299 62.7234 39.234 62.2312 39.6794C61.7389 40.1248 61.0712 40.375 60.375 40.375H29.9617L41.2335 50.5685C41.4776 50.7893 41.6712 51.0515 41.8032 51.34C41.9353 51.6285 42.0033 51.9377 42.0033 52.25C42.0033 52.5623 41.9353 52.8715 41.8032 53.16C41.6712 53.4485 41.4776 53.7107 41.2335 53.9315C40.9894 54.1523 40.6997 54.3275 40.3808 54.447C40.0619 54.5665 39.7202 54.628 39.375 54.628C39.0298 54.628 38.6881 54.5665 38.3692 54.447C38.0503 54.3275 37.7606 54.1523 37.5165 53.9315L21.7665 39.6815C21.522 39.4609 21.3281 39.1988 21.1958 38.9103C21.0634 38.6217 20.9953 38.3124 20.9953 38C20.9953 37.6876 21.0634 37.3783 21.1958 37.0897C21.3281 36.8012 21.522 36.5391 21.7665 36.3185L37.5165 22.0685C38.0094 21.6225 38.6779 21.372 39.375 21.372C40.0721 21.372 40.7406 21.6225 41.2335 22.0685C41.7264 22.5145 42.0033 23.1193 42.0033 23.75C42.0033 24.3807 41.7264 24.9855 41.2335 25.4315L29.9617 35.625H60.375Z" fill="#D1973E"/>
</svg>
