<svg width="51" height="38" viewBox="0 0 51 38" fill="none" xmlns="http://www.w3.org/2000/svg">
<path d="M35.1898 19.0535L50.4664 5.7904C50.641 5.63871 50.7778 5.45188 50.8669 5.24352C50.956 5.03516 50.9951 4.81051 50.9814 4.58594C50.9677 4.36136 50.9015 4.14253 50.7877 3.94538C50.6738 3.74823 50.5152 3.57772 50.3233 3.44628L46.7625 1.02656C45.7602 0.35293 44.5555 0.00651022 43.3289 0.0392292C42.1022 0.0719483 40.9198 0.482044 39.9588 1.20804L22.1865 14.698L17.0042 10.8869C17.6965 8.94316 17.6015 6.8236 16.738 4.94289C15.8744 3.06217 14.3045 1.55561 12.3351 0.717892C10.3658 -0.119825 8.13874 -0.228425 6.08968 0.413335C4.04062 1.0551 2.31694 2.40105 1.2558 4.1879C0.194662 5.97476 -0.127586 8.07397 0.352091 10.0749C0.831768 12.0758 2.07886 13.8346 3.84942 15.007C5.61998 16.1795 7.78663 16.6813 9.92555 16.4144C12.0645 16.1475 14.0218 15.131 15.4146 13.5638L19.5795 16.5884L12.8394 21.806C10.9295 20.8282 8.70485 20.5634 6.6006 21.0633C4.49634 21.5633 2.6638 22.792 1.46136 24.5093C0.258925 26.2265 -0.226918 28.3088 0.0988512 30.3487C0.42462 32.3887 1.53857 34.2397 3.22284 35.5397C4.90711 36.8398 7.04056 37.4953 9.20595 37.3781C11.3713 37.261 13.4129 36.3795 14.9314 34.9062C16.4499 33.4329 17.336 31.4737 17.4166 29.4117C17.4971 27.3498 16.7663 25.3334 15.3669 23.7569L41.9299 3.56727C42.3527 3.24941 42.8723 3.07028 43.411 3.05665C43.9497 3.04302 44.4785 3.19562 44.9185 3.49165L46.8737 4.8225L30.4845 19.0687L46.8737 33.2846L44.9185 34.6154C44.4785 34.9114 43.9497 35.064 43.411 35.0504C42.8723 35.0368 42.3527 34.8577 41.9299 34.5398L26.3355 22.668L23.9669 24.7248L39.9588 36.8234C40.9211 37.553 42.1067 37.9652 43.3367 37.9979C44.5667 38.0306 45.7746 37.6821 46.7784 37.0049L50.3392 34.5852C50.5311 34.4537 50.6897 34.2832 50.8036 34.0861C50.9174 33.8889 50.9836 33.6701 50.9973 33.4455C51.011 33.2209 50.9719 32.9963 50.8828 32.7879C50.7937 32.5796 50.6569 32.3927 50.4823 32.2411L35.1898 19.0535ZM8.78576 13.5486C7.69726 13.5516 6.63229 13.2473 5.7257 12.6741C4.81911 12.101 4.11167 11.2848 3.69293 10.3289C3.2742 9.37307 3.16301 8.32048 3.37343 7.30445C3.58386 6.28842 4.10645 5.35463 4.87502 4.62132C5.6436 3.888 6.62361 3.38814 7.69097 3.185C8.75834 2.98187 9.86505 3.08461 10.871 3.48021C11.877 3.87581 12.7369 4.54648 13.342 5.40731C13.9471 6.26814 14.27 7.28042 14.2701 8.31599C14.2701 9.70116 13.6928 11.0298 12.6647 12.0107C11.6367 12.9916 10.2417 13.5446 8.78576 13.5486V13.5486ZM8.78576 34.2978C7.69726 34.3008 6.63229 33.9965 5.7257 33.4233C4.81911 32.8502 4.11167 32.034 3.69293 31.0781C3.2742 30.1222 3.16301 29.0696 3.37343 28.0536C3.58386 27.0376 4.10645 26.1038 4.87502 25.3705C5.6436 24.6372 6.62361 24.1373 7.69097 23.9342C8.75834 23.731 9.86505 23.8338 10.871 24.2294C11.877 24.625 12.7369 25.2956 13.342 26.1565C13.9471 27.0173 14.27 28.0296 14.2701 29.0652C14.2701 30.4503 13.6928 31.779 12.6647 32.7599C11.6367 33.7408 10.2417 34.2938 8.78576 34.2978V34.2978Z" fill="white"/>
</svg>
