<svg width="28" height="21" viewBox="0 0 28 21" fill="none" xmlns="http://www.w3.org/2000/svg">
<path d="M18.9013 10.736L27.1066 3.61211C27.2004 3.53064 27.2739 3.43029 27.3218 3.31837C27.3697 3.20645 27.3907 3.08579 27.3833 2.96516C27.3759 2.84454 27.3404 2.727 27.2792 2.62111C27.2181 2.51521 27.1329 2.42363 27.0298 2.35303L25.1172 1.05334C24.5789 0.69152 23.9318 0.50545 23.2729 0.523024C22.6141 0.540598 21.9789 0.76087 21.4628 1.15082L11.9169 8.3966L9.13337 6.34958C9.50518 5.30553 9.45418 4.16707 8.99036 3.15689C8.52653 2.14672 7.68325 1.33751 6.62547 0.887549C5.56769 0.437592 4.3715 0.379261 3.27091 0.723965C2.17031 1.06867 1.24448 1.79161 0.674518 2.75137C0.104557 3.71114 -0.0685292 4.83867 0.189116 5.91342C0.446762 6.98817 1.1166 7.93281 2.06761 8.56256C3.01862 9.19232 4.18238 9.46187 5.33124 9.3185C6.48011 9.17514 7.53142 8.62916 8.27954 7.78737L10.5166 9.41198L6.89632 12.2144C5.87047 11.6892 4.67558 11.547 3.54533 11.8155C2.41509 12.0841 1.43079 12.7441 0.784931 13.6664C0.139074 14.5888 -0.121883 15.7072 0.0530953 16.803C0.228073 17.8987 0.826401 18.8929 1.73106 19.5912C2.63572 20.2894 3.78165 20.6415 4.94473 20.5786C6.1078 20.5157 7.20438 20.0422 8.01999 19.2509C8.8356 18.4595 9.31158 17.4072 9.35484 16.2997C9.39811 15.1921 9.00554 14.1091 8.25392 13.2623L22.5215 2.41802C22.7486 2.24729 23.0277 2.15107 23.317 2.14375C23.6064 2.13643 23.8904 2.2184 24.1268 2.3774L25.177 3.09223L16.3739 10.7442L25.177 18.3799L24.1268 19.0947C23.8904 19.2537 23.6064 19.3357 23.317 19.3283C23.0277 19.321 22.7486 19.2248 22.5215 19.0541L14.1454 12.6775L12.8732 13.7822L21.4628 20.2807C21.9797 20.6725 22.6165 20.8939 23.2771 20.9115C23.9378 20.9291 24.5866 20.7419 25.1257 20.3781L27.0383 19.0784C27.1414 19.0078 27.2266 18.9163 27.2878 18.8104C27.3489 18.7045 27.3845 18.5869 27.3918 18.4663C27.3992 18.3457 27.3782 18.225 27.3303 18.1131C27.2825 18.0012 27.209 17.9008 27.1152 17.8194L18.9013 10.736ZM4.71904 7.77925C4.13437 7.78085 3.56236 7.61738 3.07541 7.30953C2.58846 7.00168 2.20847 6.56329 1.98356 6.04987C1.75865 5.53644 1.69892 4.97107 1.81195 4.42534C1.92497 3.87961 2.20567 3.37805 2.61849 2.98417C3.03131 2.59029 3.55769 2.3218 4.131 2.21269C4.7043 2.10358 5.29875 2.15877 5.83907 2.37125C6.37939 2.58374 6.84129 2.94397 7.16629 3.40634C7.49129 3.86872 7.66477 4.41243 7.66477 4.96866C7.66478 5.71267 7.3547 6.42632 6.80251 6.95318C6.25032 7.48003 5.50108 7.7771 4.71904 7.77925V7.77925ZM4.71904 18.9241C4.13437 18.9257 3.56236 18.7622 3.07541 18.4544C2.58846 18.1465 2.20847 17.7081 1.98356 17.1947C1.75865 16.6813 1.69892 16.1159 1.81195 15.5702C1.92497 15.0245 2.20567 14.5229 2.61849 14.129C3.03131 13.7351 3.55769 13.4667 4.131 13.3575C4.7043 13.2484 5.29875 13.3036 5.83907 13.5161C6.37939 13.7286 6.84129 14.0888 7.16629 14.5512C7.49129 15.0136 7.66477 15.5573 7.66477 16.1135C7.66478 16.8575 7.3547 17.5712 6.80251 18.098C6.25032 18.6249 5.50108 18.922 4.71904 18.9241V18.9241Z" fill="white"/>
</svg>
